<?xml version="1.0" standalone="no"?>
<!DOCTYPE svg PUBLIC "-//W3C//DTD SVG 20010904//EN"
 "http://www.w3.org/TR/2001/REC-SVG-20010904/DTD/svg10.dtd">
<svg version="1.0" xmlns="http://www.w3.org/2000/svg"
 width="225.000000pt" height="225.000000pt" viewBox="0 0 225.000000 225.000000"
 preserveAspectRatio="xMidYMid meet">
<metadata>
Created by potrace 1.14, written by Peter Selinger 2001-2017
</metadata>
<g transform="translate(0.000000,225.000000) scale(0.100000,-0.100000)"
fill="#000000" stroke="none">
<path d="M0 1125 l0 -1125 1125 0 1125 0 0 1125 0 1125 -1125 0 -1125 0 0
-1125z m1205 83 l14 -33 9 25 c8 21 10 15 16 -37 7 -66 -1 -146 -15 -137 -5 3
-9 27 -9 53 0 33 -8 63 -26 95 -14 25 -23 50 -19 56 10 16 15 12 30 -22z m364
-5 c-44 -85 -97 -285 -104 -389 -8 -114 1 -134 35 -79 12 19 24 35 26 35 19 0
44 -24 44 -43 0 -18 -6 -22 -32 -22 -28 0 -33 -4 -36 -26 -4 -35 33 -51 134
-57 l81 -4 -3 33 c-2 19 -1 26 2 17 7 -24 24 -23 70 7 l39 25 -39 -35 c-36
-32 -37 -35 -16 -35 32 0 104 44 129 79 11 16 26 53 33 82 l12 54 6 -49 c8
-64 -5 -169 -25 -200 -30 -46 -154 -76 -312 -76 -106 0 -133 10 -181 64 -44
50 -55 101 -47 215 l7 96 -25 -27 c-14 -16 -30 -28 -34 -28 -5 0 -13 -9 -18
-19 -69 -133 -94 -191 -126 -285 -21 -61 -38 -101 -39 -90 0 50 42 228 74 305
49 122 86 203 94 209 5 3 36 42 70 87 35 46 78 95 98 110 19 16 49 40 66 56
18 15 33 27 34 27 1 0 -7 -17 -17 -37z m-826 -13 c18 -11 46 -37 63 -57 16
-21 36 -45 44 -54 8 -8 20 -24 27 -35 6 -10 16 -18 23 -16 6 1 9 -2 5 -8 -4
-6 7 -26 24 -46 17 -19 31 -39 31 -44 0 -6 12 -34 26 -63 45 -92 84 -197 109
-294 34 -131 31 -169 -5 -61 -31 93 -97 255 -113 276 -5 7 -18 27 -27 45 -12
21 -25 32 -39 31 -14 0 -20 4 -17 12 3 7 0 11 -7 8 -8 -3 -12 -37 -12 -112 0
-98 -2 -112 -29 -163 -15 -31 -40 -63 -54 -70 -51 -28 -313 -9 -403 29 -35 14
-69 59 -69 89 0 13 -12 35 -28 50 -24 23 -25 25 -5 19 20 -6 22 -3 28 41 9 65
13 75 15 33 1 -19 5 -44 10 -55 7 -16 9 -12 10 20 1 22 4 34 7 26 11 -27 51
-61 56 -48 2 7 10 0 17 -14 7 -15 24 -32 38 -38 22 -11 29 -9 57 19 28 27 33
29 45 15 9 -11 16 -13 26 -4 11 9 16 5 24 -15 11 -29 34 -34 57 -10 14 14 13
20 -11 67 -25 50 -36 127 -17 127 4 0 14 -27 20 -59 6 -33 20 -70 30 -82 17
-21 19 -21 43 -5 29 19 36 14 58 -42 30 -76 41 45 15 167 -9 44 -28 90 -50
125 -38 60 -44 82 -19 72 12 -5 14 -1 8 16 -4 13 -16 35 -27 50 -16 22 -31 78
-20 78 1 0 17 -9 36 -20z m437 -119 c-6 -24 -20 -62 -31 -85 -14 -29 -19 -62
-20 -125 0 -76 -15 -195 -18 -148 0 10 -16 34 -35 53 -31 32 -33 36 -24 77 20
88 20 103 4 116 -14 12 -16 10 -16 -10 -1 -24 -1 -24 -24 5 -24 29 -66 103
-66 114 0 4 4 1 9 -7 8 -12 14 -11 38 5 15 10 31 17 36 16 4 -1 7 3 7 8 0 6 9
10 20 10 11 0 20 -6 20 -14 0 -7 7 -19 15 -26 8 -7 15 -21 15 -31 0 -39 16
-16 40 57 21 64 25 72 33 52 5 -14 4 -41 -3 -67z m124 -30 c-4 -23 -9 -40 -11
-37 -3 3 -2 23 2 46 4 23 9 39 11 37 3 -2 2 -23 -2 -46z m-561 -87 c-4 -10
-14 -7 -39 12 -46 36 -43 50 5 23 24 -13 37 -27 34 -35z m-150 -103 c14 -31
27 -69 30 -86 4 -16 4 -24 1 -17 -3 6 -10 9 -16 6 -5 -3 -12 3 -15 15 -3 11
-8 19 -12 17 -3 -2 -13 24 -22 58 -20 82 0 86 34 7z m-192 -73 c11 -21 11 -22
-4 -9 -10 7 -17 17 -17 22 0 15 9 10 21 -13z m-137 -79 c-3 -5 2 -22 12 -37
l17 -27 -32 29 c-36 35 -38 41 -11 43 11 1 18 -3 14 -8z"/>
<path d="M370 675 c7 -9 15 -13 17 -11 7 7 -7 26 -19 26 -6 0 -6 -6 2 -15z"/>
<path d="M500 657 c0 -15 -5 -17 -30 -12 -18 4 -30 2 -30 -3 0 -40 267 -46
300 -8 8 10 3 15 -22 21 -47 11 -72 11 -79 2 -3 -4 -19 -3 -35 4 -16 6 -46 12
-67 13 -30 1 -37 -3 -37 -17z"/>
<path d="M601 774 c0 -11 3 -14 6 -6 3 7 2 16 -1 19 -3 4 -6 -2 -5 -13z"/>
</g>
</svg>
